# xmcd CD database file
#
# Track frame offsets:
#	182
#	14465
#	27905
#	43145
#	55717
#	67965
#	80195
#	94847
#	108365
#	121125
#	132267
#	146117
#	159607
#	172972
#	186025
#	198735
#	211800
#	226340
#
# Disc length: 3203 seconds
#
# Revision: 0
# Processed by: cddbd v1.5.2PL0 Copyright (c) Steve Scherf et al.
# Submitted via: CDex 1.51
#
DISCID=fb0c8112
DTITLE=Bill 'Jazz' Gillum - Best of Blues 1935-1946
DYEAR=1935
DGENRE=Blues
TTITLE0=Mobile and Western Line
TTITLE1=Crazy About You
TTITLE2=I Want You By My Side
TTITLE3=Jockey Blues
TTITLE4=She Keeps on Rickin'
TTITLE5=I Went to the Gypsy
TTITLE6=My Old Lizzy
TTITLE7=My Old Suitcase
TTITLE8=Get Away Old Woman
TTITLE9=Stavin' Chain
TTITLE10=Somebody Been Talkin' to You
TTITLE11=One Time Blues
TTITLE12=Big Katy Adams
TTITLE13=Get Your Business Straight
TTITLE14=That's What Worries Me
TTITLE15=My Big Money
TTITLE16=Deep Water Blues
TTITLE17=Fast Woman
EXTD=YEAR: 1935
EXTT0=
EXTT1=
EXTT2=
EXTT3=
EXTT4=
EXTT5=
EXTT6=
EXTT7=
EXTT8=
EXTT9=
EXTT10=
EXTT11=
EXTT12=
EXTT13=
EXTT14=
EXTT15=
EXTT16=
EXTT17=
PLAYORDER=
